HIERARCHY
ROOT root
{
	OFFSET 0.000000 0.000000 0.000000
	CHANNELS 6 Xposition Yposition Zposition Zrotation Yrotation Xrotation
	JOINT lhip
	{
		OFFSET 0.058581 -0.082280 -0.017664
		CHANNELS 3 Zrotation Yrotation Xrotation
		JOINT lknee
		{
			OFFSET 0.043451 -0.386469 0.008037
			CHANNELS 3 Zrotation Yrotation Xrotation
			JOINT lankle
			{
				OFFSET -0.014790 -0.426874 -0.037428
				CHANNELS 3 Zrotation Yrotation Xrotation
				JOINT ltoe
				{
					OFFSET 0.041054 -0.060286 0.122042
					CHANNELS 3 Zrotation Yrotation Xrotation
					End Site
					{
						OFFSET 0.000000 0.000000 0.000000
					}
				}
			}
		}
	}
	JOINT rhip
	{
		OFFSET -0.060310 -0.090513 -0.013543
		CHANNELS 3 Zrotation Yrotation Xrotation
		JOINT rknee
		{
			OFFSET -0.043257 -0.383688 -0.004843
			CHANNELS 3 Zrotation Yrotation Xrotation
			JOINT rankle
			{
				OFFSET 0.019056 -0.420046 -0.034562
				CHANNELS 3 Zrotation Yrotation Xrotation
				JOINT rtoe
				{
					OFFSET -0.034840 -0.062106 0.130323
					CHANNELS 3 Zrotation Yrotation Xrotation
					End Site
					{
						OFFSET 0.000000 0.000000 0.000000
					}
				}
			}
		}
	}
	JOINT lowerback
	{
		OFFSET 0.004439 0.124404 -0.038385
		CHANNELS 3 Zrotation Yrotation Xrotation
		JOINT upperback
		{
			OFFSET 0.004488 0.137956 0.026820
			CHANNELS 3 Zrotation Yrotation Xrotation
			JOINT chest
			{
				OFFSET -0.002265 0.056032 0.002855
				CHANNELS 3 Zrotation Yrotation Xrotation
				JOINT lowerneck
				{
					OFFSET -0.013390 0.211636 -0.033468
					CHANNELS 3 Zrotation Yrotation Xrotation
					JOINT upperneck
					{
						OFFSET 0.010113 0.088937 0.050410
						CHANNELS 3 Zrotation Yrotation Xrotation
						End Site
						{
							OFFSET 0.000000 0.000000 0.000000
						}
					}
				}
				JOINT lclavicle
				{
					OFFSET 0.071702 0.114000 -0.018898
					CHANNELS 3 Zrotation Yrotation Xrotation
					JOINT lshoulder
					{
						OFFSET 0.122921 0.045205 -0.019046
						CHANNELS 3 Zrotation Yrotation Xrotation
						JOINT lelbow
						{
							OFFSET 0.255332 -0.015649 -0.022946
							CHANNELS 3 Zrotation Yrotation Xrotation
							JOINT lwrist
							{
								OFFSET 0.265709 0.012698 -0.007375
								CHANNELS 3 Zrotation Yrotation Xrotation
								End Site
								{
									OFFSET 0.000000 0.000000 0.000000
								}
							}
						}
					}
				}
				JOINT rclavicle
				{
					OFFSET -0.082954 0.112472 -0.023707
					CHANNELS 3 Zrotation Yrotation Xrotation
					JOINT rshoulder
					{
						OFFSET -0.113228 0.046853 -0.008472
						CHANNELS 3 Zrotation Yrotation Xrotation
						JOINT relbow
						{
							OFFSET -0.260127 -0.014369 -0.031269
							CHANNELS 3 Zrotation Yrotation Xrotation
							JOINT rwrist
							{
								OFFSET -0.269108 0.006794 -0.006027
								CHANNELS 3 Zrotation Yrotation Xrotation
								End Site
								{
									OFFSET 0.000000 0.000000 0.000000
								}
							}
						}
					}
				}
			}
		}
	}
}
MOTION
Frames: 17
Frame Time: 0.033333
0.710122 0.724222 1.119940 -86.679305 -1.029742 112.656353 0.401677 3.439336 0.136906 1.012242 -0.499307 0.657413 -4.197546 16.403113 41.353598 0.000000 -0.000000 0.000000 -1.020164 -10.133484 -0.791508 -0.632024 -2.135804 6.585264 4.779810 -15.983723 41.716384 0.000000 -0.000000 0.000000 -2.086788 3.458527 -2.872154 -0.851062 -8.216446 2.833109 4.190526 0.796640 -5.659032 -13.167266 -1.558214 12.964263 15.467417 -0.792410 -27.549635 21.508279 -37.819516 -16.363450 49.675968 -5.644414 -36.861882 0.192083 -7.858035 -26.254634 -5.559411 -16.134105 6.489839 -33.275676 34.742326 -17.884396 -28.455975 5.227946 -43.695123 -14.713915 22.189254 -35.079387 0.822169 10.010139 10.650298 
0.655264 0.721763 1.159876 -85.619546 -1.356344 111.804511 0.053943 1.735403 -1.014429 -0.573740 -2.113370 0.808894 -4.332060 15.503491 44.415241 0.000000 -0.000000 0.000000 -0.766788 -9.161744 -1.717362 0.993871 -1.608044 6.645949 4.532854 -15.365410 43.333930 0.000000 -0.000000 0.000000 -1.723072 3.077622 -0.829747 -0.820889 -7.809891 1.816597 4.206916 0.561677 -5.233989 -12.813538 -1.632551 12.216620 15.489736 -2.035838 -27.136804 20.143490 -35.501642 -13.535264 48.015293 -0.056414 -35.742741 0.844188 -5.074717 -30.143201 -3.156711 -15.699742 6.144464 -31.014374 33.277321 -15.490339 -26.822421 0.692694 -45.240228 -17.265933 20.534596 -41.406433 -0.666536 11.456561 8.611443 
0.608832 0.721823 1.192543 -85.042396 -1.365457 109.686160 -0.749006 2.144071 -2.968285 0.710165 -2.180547 -0.435295 -2.738293 15.769590 42.982905 0.000000 -0.000000 0.000000 -0.166779 -9.383736 -4.655677 0.844555 -2.060274 8.475072 3.263530 -16.224402 42.505527 0.000000 -0.000000 0.000000 -0.874402 2.666714 4.743696 -0.720397 -6.997481 -0.863625 4.249015 0.689072 -2.961218 -12.351892 -2.658272 10.485934 14.689693 -3.354762 -26.779621 17.983133 -31.717299 -11.606365 43.142835 3.885102 -34.946733 3.288869 -4.348265 -33.282893 -3.017655 -13.711004 6.584143 -26.920278 31.303172 -12.550611 -26.162836 -1.368814 -46.910616 -17.579708 18.091781 -42.730584 -1.133118 9.785852 11.503905 
0.566156 0.722531 1.215677 -85.986451 -0.474536 107.680828 -0.560231 3.653852 -6.732236 1.068275 0.589907 -0.591516 -2.306462 16.488939 40.788884 0.000000 -0.000000 0.000000 0.758272 -9.710584 -8.901431 0.605211 -2.670952 8.001647 2.869324 -15.860077 40.694743 0.000000 -0.000000 0.000000 0.776892 2.576099 10.352338 -1.277398 -6.142600 -2.967191 4.069305 1.002031 -0.887098 -11.748952 -2.621654 9.774703 13.965147 -4.093219 -26.166885 15.754612 -29.670629 -10.209463 36.654548 5.839383 -35.302525 6.693330 -3.214216 -37.455361 -0.376005 -13.080030 6.285529 -23.589386 30.812808 -9.296192 -23.831691 -1.528574 -48.268467 -15.053441 15.178430 -40.731099 -1.255020 8.708684 14.069212 
0.526585 0.722833 1.230219 -88.354716 0.161411 106.387854 -0.507012 3.515304 -12.031953 0.835780 2.669887 0.166308 -2.340466 15.528873 39.915355 0.000000 -0.000000 0.000000 1.599833 -9.341898 -15.279453 0.243089 -3.035795 6.606632 2.571218 -14.793160 38.891824 0.000000 -0.000000 0.000000 1.367057 3.099589 14.961107 -2.096527 -5.195307 -2.665126 4.012085 1.429702 -0.899276 -11.449679 -1.728922 9.281488 13.382532 -4.448615 -25.739622 14.012278 -29.066768 -9.422954 29.264206 5.582188 -35.533435 9.807454 -4.241347 -42.035618 -1.394745 -11.823452 3.643265 -20.896711 31.803859 -6.291368 -20.187643 1.467584 -48.051927 -13.912484 12.777702 -38.710830 -0.884562 7.437098 14.106373 
0.489528 0.721807 1.235342 -90.887400 0.226734 105.096638 -0.760180 2.745739 -17.972077 0.778719 5.480829 1.040420 -1.662283 14.897608 38.114516 0.000000 -0.000000 0.000000 2.145962 -7.729117 -22.786886 -0.072230 -3.789505 5.597190 2.796755 -13.614506 38.561151 0.000000 -0.000000 0.000000 1.133626 3.566939 19.660417 -3.150280 -3.690735 -0.344896 3.623721 2.533494 -2.869435 -10.903346 -1.428510 8.300884 13.576180 -5.078074 -25.491595 12.182195 -28.836031 -9.257856 23.567055 0.800188 -34.203938 11.505746 -5.667558 -41.595872 -2.427663 -10.847339 4.594812 -17.500962 32.746507 -2.391489 -16.827975 5.439152 -46.850854 -13.055157 13.237401 -36.939185 -0.883920 6.824906 13.858294 
0.452055 0.720891 1.228813 -92.545997 -0.119179 103.402494 -0.646383 1.353228 -24.461023 0.897264 8.442906 3.756018 -0.937049 13.925856 36.947337 0.000000 -0.000000 0.000000 2.848581 -6.703551 -29.027530 -0.570611 -6.426798 2.681105 3.827085 -13.158851 37.562192 0.000000 -0.000000 0.000000 0.498281 4.029957 25.086824 -3.767730 -2.744566 1.235804 3.584889 3.412315 -4.388218 -10.425678 -0.412818 6.943729 13.602623 -6.088446 -26.090994 12.375117 -28.385988 -9.711456 16.783562 -5.247557 -30.859301 12.624052 -7.399637 -37.750455 -3.883748 -11.094811 4.806925 -15.205126 34.544395 0.106289 -13.835293 10.613420 -43.901384 -12.848814 14.484997 -31.999337 -0.155690 6.845535 13.892635 
0.411616 0.719402 1.209141 -93.118891 -0.566949 101.191441 -0.122617 -0.392019 -30.165591 0.835182 9.747217 6.344220 -2.166810 12.695131 34.164220 0.000000 -0.000000 0.000000 3.599226 -5.869203 -32.315648 -1.149845 -7.960818 -2.292691 4.499328 -12.818592 37.431287 0.000000 -0.000000 0.000000 0.290519 4.379076 31.066828 -4.266431 -2.494943 1.619296 3.540984 4.041491 -4.942653 -10.024523 -0.200120 5.151435 14.086108 -6.956688 -26.973437 12.086156 -28.548026 -9.219155 11.546769 -9.259592 -25.956093 13.559416 -12.945215 -32.081169 -4.106672 -13.156232 3.373764 -13.165766 36.020404 2.052275 -10.398787 14.030980 -39.387982 -11.230357 18.374848 -23.811429 0.706181 7.248564 13.394780 
0.365942 0.719010 1.174888 -92.777232 -1.384518 98.654435 0.270519 -2.224131 -34.639392 0.247768 10.107279 7.293680 -2.483024 11.165963 31.620475 0.000000 -0.000000 0.000000 3.139146 -5.663858 -34.954459 -1.193145 -7.790939 -0.697272 4.106626 -12.329420 38.077228 0.000000 -0.000000 0.000000 0.409081 5.025882 35.716388 -4.520546 -2.554633 3.016871 3.114227 3.868219 -5.197708 -8.640641 -0.090866 2.974234 13.439569 -7.685323 -26.896311 9.758868 -26.567965 -8.238041 7.290655 -11.497094 -19.785770 15.408580 -27.977841 -24.522977 -2.584565 -15.086070 3.355261 -10.010601 35.750366 3.170236 -5.436305 17.223428 -32.961445 -10.220116 22.668025 -18.578390 0.118265 7.948695 10.293315 
0.313211 0.718353 1.126438 -91.160778 -2.151311 96.308588 0.514534 -3.926931 -38.443204 -0.547950 9.928160 7.283052 -2.883818 9.340317 23.282925 0.000000 -0.000000 0.000000 1.342045 -6.225907 -36.357571 -0.336959 -7.782103 7.247227 5.256281 -10.373913 39.005549 0.000000 -0.000000 0.000000 0.676407 5.840451 37.689103 -3.452342 -2.607277 4.989183 2.629970 3.496991 -5.417729 -6.702746 -0.201858 1.669043 12.228705 -9.307789 -25.841095 6.636250 -22.434474 -6.227499 0.144122 -14.068577 -12.589517 18.054923 -47.302186 -18.335591 -2.577047 -17.986607 2.935588 -4.580344 33.325902 5.198821 2.837160 18.649397 -25.534237 -10.330824 28.229036 -15.670431 0.833915 9.111916 8.562669 
0.251832 0.717937 1.067768 -89.185308 -1.588723 92.808308 2.188875 -5.161747 -40.345378 -2.083680 6.992605 9.404599 -2.192595 7.249385 11.139454 0.000000 -0.000000 0.000000 -0.418926 -5.218196 -33.757501 1.472559 -7.453605 18.005611 6.376042 -8.252073 39.429059 0.000000 -0.000000 0.000000 1.266527 6.482149 39.416366 -1.351799 -2.429191 6.200009 2.823831 3.015554 -4.966669 -4.671988 0.440973 0.669303 10.076624 -10.455080 -25.248378 2.486708 -17.916441 -2.092110 -12.395542 -14.394346 -5.115869 22.341365 -63.430646 -16.920406 -1.285644 -19.272597 -0.610518 1.872459 29.157718 8.184139 15.154517 17.497269 -18.147974 -12.262740 35.354003 -14.304476 -0.849283 9.723473 4.574722 
0.185683 0.720526 0.998312 -88.155463 0.203934 88.560954 5.417449 -5.219238 -43.282888 -5.692964 1.651029 20.086149 -0.614623 7.610287 5.728115 0.000000 -0.000000 0.000000 0.468801 -2.807018 -29.199612 5.165340 -3.311336 33.318807 -0.173360 -5.517905 4.123678 0.000000 -0.000000 0.000000 2.787717 6.805857 42.181570 -0.638755 -2.456673 4.711188 3.377194 2.298905 -2.578054 -3.911680 -0.599956 -2.260234 8.895898 -9.817899 -23.450627 -3.971971 -11.925153 0.936302 -25.717827 -13.102888 1.221183 10.679264 -68.879249 -4.078083 -2.011480 -18.929486 -1.699191 9.466666 22.919264 9.089201 28.845397 14.958526 -9.948184 -12.667644 40.170863 -10.331234 -2.109170 10.299423 1.585643 
0.120928 0.724139 0.925578 -90.168151 2.782625 83.507453 8.461992 -1.754528 -46.234673 -9.055490 2.015889 38.041534 0.463736 7.826857 -1.450800 0.000000 -0.000000 0.000000 5.322793 -0.991001 -23.724767 2.972978 -3.485503 44.666962 -7.303986 -12.197563 -24.626038 0.000000 -0.000000 0.000000 3.463196 6.228826 47.659544 -1.207420 -1.450721 0.351979 3.628994 1.747874 2.845718 -1.252831 0.744308 -9.151274 7.193925 -9.668536 -21.531631 -11.824701 -5.232657 0.414254 -36.899667 -9.657109 5.934375 3.117587 -61.209486 3.924046 -5.400307 -15.427770 1.657772 16.716657 17.040573 7.528929 39.432803 10.748828 -2.606885 -10.148492 41.355143 -2.965903 -1.558467 8.971034 -0.469258 
0.069704 0.718711 0.875557 -91.831480 3.605297 84.845354 10.036415 -2.694830 -47.458326 -10.187972 2.433200 38.726637 1.902506 8.263520 -1.705813 0.000000 -0.000000 0.000000 5.115667 4.678050 -32.196937 1.615810 -6.508938 64.772505 -5.217973 -14.960820 -27.609180 0.000000 -0.000000 0.000000 -0.540853 3.866600 48.762989 -1.395224 -0.229887 4.878515 2.846419 2.163569 -3.078107 -1.026642 0.185720 -14.397669 9.273071 -5.874227 -21.609246 -22.438314 -2.497604 1.714787 -40.228420 -6.091326 7.709826 6.532115 -46.032264 -5.566499 -8.781892 -11.511142 6.290484 25.282886 13.579202 11.533337 43.941522 9.984298 3.484632 -9.941621 34.974554 -0.028956 -0.459662 7.764083 0.692008 
0.027285 0.714834 0.840955 -90.945419 2.462061 84.764279 9.185465 -4.170915 -54.701213 -11.010331 5.197722 54.670957 6.385067 8.939096 -4.959119 0.000000 -0.000000 0.000000 3.925426 5.384097 -33.907490 1.033633 -8.086699 75.894235 -7.617409 -17.837007 -27.990301 0.000000 -0.000000 0.000000 -2.503476 3.747740 54.954669 -2.123901 -2.220457 3.317191 2.260865 1.689980 -4.268669 1.036735 1.234536 -20.556364 10.746568 -4.482533 -20.837650 -24.027940 -5.039881 4.138327 -47.037351 -8.108223 7.303369 9.859305 -31.401260 -6.972052 -11.712622 -7.478315 11.528968 26.604252 13.918997 13.206306 53.753155 9.844205 5.434697 -11.928254 26.341498 -0.278455 2.364764 4.931836 1.031399 
-0.001605 0.711109 0.819923 -88.099613 0.320831 88.278823 10.889824 -7.893856 -61.741759 -13.092247 11.105736 60.379178 8.675109 9.839508 -7.359661 0.000000 -0.000000 0.000000 -1.076139 2.795907 -44.192151 -1.741179 -10.026619 90.359126 -6.175369 -13.066702 -16.797700 0.000000 -0.000000 0.000000 -2.533374 4.466809 56.837591 -1.391186 -4.134560 1.902876 2.761718 0.520266 -3.734383 -0.196129 -0.039746 -22.224939 11.014758 -3.636807 -22.159967 -23.081657 -13.641784 6.754336 -54.760841 -11.638651 9.134951 14.091302 -23.345757 -10.225350 -13.017235 -4.380279 10.799745 25.349399 17.619536 13.908868 58.852708 8.269647 4.398047 -13.174560 23.830061 -2.621483 4.308428 2.457879 2.436102 
-0.028446 0.705247 0.807316 -86.676900 0.299010 90.322027 10.406609 -7.726873 -64.882155 -13.246780 12.470262 65.344274 10.449895 9.665886 -12.500510 0.000000 -0.000000 0.000000 -5.114341 -0.279881 -52.892585 -2.436019 -12.338374 100.433057 -4.266113 -8.679226 -10.726236 0.000000 -0.000000 0.000000 -1.605469 3.426448 59.130997 -0.920464 -4.036763 0.897375 3.001512 0.317483 -3.045048 -1.218957 -1.639851 -21.184439 10.351359 -2.879269 -23.441810 -23.080992 -19.451348 6.501508 -57.433713 -14.466527 12.059418 16.126088 -24.218879 -11.486505 -10.134363 -7.009678 6.227513 23.569516 20.377249 12.581947 56.043801 6.354738 4.050670 -10.864539 27.415867 3.760818 5.119287 3.652662 4.431883 
